# xmcd
#
# Track frame offsets: 
#        150
#        11619
#        25765
#        38849
#        48377
#        60294
#        71218
#        82526
#        95418
#        107377
#        119840
#        131166
#        145088
#        154798
#        168008
#        179245
#        190564
#        201490
#        214580
#        225855
#        237425
#        249250
#        261652
#        271137
#        282459
#        294220
#        306742
#        319623
#        333549
#
# Disc length: 4610 seconds
#
# Revision: 1
# Processed by: cddbd v1.5.2PL0 Copyright (c) Steve Scherf et al.
# Submitted via: ExactAudioCopyFreeDBPlugin 1.0
#
DISCID=a112001d
DTITLE=Various Artist - We're Gonna Rock, We're Gonna Roll
DYEAR=2005
DGENRE=Rock
TTITLE0=The Dominoes - 60 Minute Man
TTITLE1=The Clovers - Ting a Ling
TTITLE2=The Cadillacs - Gloria
TTITLE3=The Orioles - Hold Me, Squeeze Me
TTITLE4=The Jewels - Hearts of Stone
TTITLE5=The Five Keys - Mama (Your Daughter Told a Lie on Me)
TTITLE6=The Rainbows - Mary Lee
TTITLE7=The Du-Droppers - Can't Do Sixty No More
TTITLE8=Carlyle Dundee - Never
TTITLE9=The Ravens - Rock Me All Night Long
TTITLE10=The Drifters - Such a Night
TTITLE11=The Rivileers - A Thousand Stars
TTITLE12=The Five Keys - Ling Ting Tong
TTITLE13=The Penguins - Earth Angel
TTITLE14=The Clovers - One Mint Julep
TTITLE15=The Teardrops - Ooh Baby
TTITLE16=The Drifters - Honey Love
TTITLE17=Bobby Lester and The Moonlighters - Shoo Doo Be Doo
TTITLE18=The Crows - No Help Wanted
TTITLE19=The Clovers - Fool Fool Fool
TTITLE20=The Eagles - Trying to Get to You
TTITLE21=The El Dorados - My Loving Baby
TTITLE22=The Spaniels - Bounce
TTITLE23=The Midnighters - Sexy Ways
TTITLE24=The Du-Droppers - Boot 'Em Up
TTITLE25=The Drifters - Bip Bam
TTITLE26=The Swallows - Roll Roll Pretty Baby
TTITLE27=The Cardinals - She Rocks
TTITLE28=The Clovers - Lovey Dovey
EXTD=
EXTT0=
EXTT1=
EXTT2=
EXTT3=
EXTT4=
EXTT5=
EXTT6=
EXTT7=
EXTT8=
EXTT9=
EXTT10=
EXTT11=
EXTT12=
EXTT13=
EXTT14=
EXTT15=
EXTT16=
EXTT17=
EXTT18=
EXTT19=
EXTT20=
EXTT21=
EXTT22=
EXTT23=
EXTT24=
EXTT25=
EXTT26=
EXTT27=
EXTT28=
PLAYORDER=
